<?xml version="1.0" standalone="no"?>
<!DOCTYPE svg PUBLIC "-//W3C//DTD SVG 20010904//EN"
 "http://www.w3.org/TR/2001/REC-SVG-20010904/DTD/svg10.dtd">
<svg version="1.0" xmlns="http://www.w3.org/2000/svg"
 width="48.000000pt" height="48.000000pt" viewBox="0 0 48.000000 48.000000"
 preserveAspectRatio="xMidYMid meet">

<g transform="translate(0.000000,48.000000) scale(0.100000,-0.100000)"
fill="#000000" stroke="none">
<path d="M180 471 c-49 -16 -87 -40 -119 -76 -36 -41 -38 -55 -12 -79 18 -17
19 -16 31 19 18 56 43 66 159 66 151 0 162 -11 162 -162 0 -116 -10 -141 -66
-159 -35 -12 -36 -13 -19 -31 24 -26 38 -24 79 13 56 48 79 102 79 178 0 95
-44 169 -128 212 -43 22 -128 32 -166 19z"/>
<path d="M127 352 c-24 -27 -22 -94 3 -117 19 -18 20 -17 20 3 0 11 12 34 26
51 52 62 144 29 144 -51 0 -28 -7 -42 -31 -62 -17 -14 -40 -26 -51 -26 -20 0
-21 -1 -3 -20 24 -27 95 -28 118 -2 26 28 24 202 -1 225 -28 26 -202 24 -225
-1z m218 -23 c0 -7 -8 -15 -17 -17 -18 -3 -25 18 -11 32 10 10 28 1 28 -15z"/>
<path d="M202 278 c-30 -30 -2 -88 42 -88 29 0 46 18 46 50 0 33 -17 50 -50
50 -14 0 -31 -5 -38 -12z"/>
</g>
</svg>
